<mxfile host="app.diagrams.net" modified="2021-01-01T18:56:08.178Z" agent="5.0 (Windows NT 10.0; Win64; x64) AppleWebKit/537.36 (KHTML, like Gecko) Chrome/87.0.4280.88 Safari/537.36 Edg/87.0.664.66" etag="-LPOEUvKexYi6hwo7xnF" version="14.1.5" type="github">
  <diagram id="snoEYx2wyJYJho1ahIqR" name="Page-1">
    <mxGraphModel dx="1038" dy="580" grid="1" gridSize="10" guides="1" tooltips="1" connect="1" arrows="1" fold="1" page="1" pageScale="1" pageWidth="827" pageHeight="1169" math="0" shadow="0">
      <root>
        <mxCell id="0" />
        <mxCell id="1" parent="0" />
        <mxCell id="-a6RFXaKAfT1HA0z5L9M-1" value="PC" style="whiteSpace=wrap;html=1;aspect=fixed;fontFamily=Verdana;" vertex="1" parent="1">
          <mxGeometry x="90" y="110" width="100" height="100" as="geometry" />
        </mxCell>
        <mxCell id="-a6RFXaKAfT1HA0z5L9M-2" value="" style="endArrow=classic;html=1;fontFamily=Verdana;" edge="1" parent="1" target="-a6RFXaKAfT1HA0z5L9M-3">
          <mxGeometry width="50" height="50" relative="1" as="geometry">
            <mxPoint x="190" y="160" as="sourcePoint" />
            <mxPoint x="310" y="160" as="targetPoint" />
          </mxGeometry>
        </mxCell>
        <mxCell id="-a6RFXaKAfT1HA0z5L9M-3" value="THE INTERNET" style="whiteSpace=wrap;html=1;aspect=fixed;direction=south;" vertex="1" parent="1">
          <mxGeometry x="270" y="120" width="80" height="80" as="geometry" />
        </mxCell>
        <mxCell id="-a6RFXaKAfT1HA0z5L9M-4" value="" style="endArrow=classic;html=1;fontFamily=Verdana;" edge="1" parent="1" target="-a6RFXaKAfT1HA0z5L9M-5">
          <mxGeometry width="50" height="50" relative="1" as="geometry">
            <mxPoint x="350" y="160" as="sourcePoint" />
            <mxPoint x="450" y="160" as="targetPoint" />
          </mxGeometry>
        </mxCell>
        <mxCell id="-a6RFXaKAfT1HA0z5L9M-5" value="esp8266" style="whiteSpace=wrap;html=1;aspect=fixed;" vertex="1" parent="1">
          <mxGeometry x="410" y="120" width="80" height="80" as="geometry" />
        </mxCell>
        <mxCell id="-a6RFXaKAfT1HA0z5L9M-6" value="" style="endArrow=classic;html=1;fontFamily=Verdana;exitX=1;exitY=0.5;exitDx=0;exitDy=0;" edge="1" parent="1" source="-a6RFXaKAfT1HA0z5L9M-5">
          <mxGeometry width="50" height="50" relative="1" as="geometry">
            <mxPoint x="560" y="159.5" as="sourcePoint" />
            <mxPoint x="610" y="159.5" as="targetPoint" />
          </mxGeometry>
        </mxCell>
        <mxCell id="-a6RFXaKAfT1HA0z5L9M-10" value="ARDUINO" style="whiteSpace=wrap;html=1;aspect=fixed;fontFamily=Verdana;" vertex="1" parent="1">
          <mxGeometry x="610" y="120" width="80" height="80" as="geometry" />
        </mxCell>
        <mxCell id="-a6RFXaKAfT1HA0z5L9M-11" value="" style="endArrow=classic;html=1;fontFamily=Verdana;" edge="1" parent="1">
          <mxGeometry width="50" height="50" relative="1" as="geometry">
            <mxPoint x="640" y="200" as="sourcePoint" />
            <mxPoint x="640" y="300" as="targetPoint" />
          </mxGeometry>
        </mxCell>
        <mxCell id="-a6RFXaKAfT1HA0z5L9M-13" value="SERVO MOTOR" style="rounded=0;whiteSpace=wrap;html=1;fontFamily=Verdana;" vertex="1" parent="1">
          <mxGeometry x="580" y="300" width="120" height="90" as="geometry" />
        </mxCell>
      </root>
    </mxGraphModel>
  </diagram>
</mxfile>
